<svg width="80" height="40" viewBox="0 0 80 40" fill="none" xmlns="http://www.w3.org/2000/svg">
<path d="M12.251 6.17188C13.0257 6.21615 13.6621 6.51497 14.1602 7.06836C14.6582 7.61068 15.0179 8.23047 15.2393 8.92773C15.4606 9.625 15.5713 10.3389 15.5713 11.0693C15.5713 11.7998 15.4606 12.5137 15.2393 13.2109C15.029 13.9082 14.6693 14.5335 14.1602 15.0869C13.6621 15.6292 13.0257 15.9225 12.251 15.9668H6.1416C5.84277 15.9557 5.58822 15.8506 5.37793 15.6514C5.17871 15.4411 5.07357 15.1865 5.0625 14.8877V10.7705C5.07357 10.4606 5.18978 10.2061 5.41113 10.0068C5.63249 9.79655 5.89811 9.69141 6.20801 9.69141C6.50684 9.70247 6.76139 9.81315 6.97168 10.0234C7.18197 10.2227 7.29264 10.4717 7.30371 10.7705V13.2939C7.30371 13.5928 7.45866 13.7422 7.76855 13.7422H11.6865C12.1071 13.7201 12.4557 13.5596 12.7324 13.2607C13.0091 12.9619 13.2083 12.6243 13.3301 12.248C13.4629 11.8607 13.5293 11.4678 13.5293 11.0693C13.5293 10.6709 13.4629 10.2835 13.3301 9.90723C13.2083 9.51986 13.0091 9.17676 12.7324 8.87793C12.4557 8.5791 12.1071 8.41862 11.6865 8.39648H6.1416C5.47754 8.34115 5.11784 7.98145 5.0625 7.31738C5.0625 7.00749 5.16211 6.74186 5.36133 6.52051C5.57161 6.29915 5.83171 6.18294 6.1416 6.17188H12.251ZM18.5264 8.26367C18.8252 8.27474 19.0798 8.38542 19.29 8.5957C19.5003 8.79492 19.611 9.04395 19.6221 9.34277V15.0869C19.5557 15.751 19.1904 16.1107 18.5264 16.166C18.2165 16.166 17.9453 16.0664 17.7129 15.8672C17.4915 15.6569 17.3809 15.3968 17.3809 15.0869V9.34277C17.3919 9.03288 17.5081 8.77832 17.7295 8.5791C17.9508 8.36882 18.2165 8.26367 18.5264 8.26367ZM17.1318 6.10547C17.1318 5.79557 17.2646 5.52995 17.5303 5.30859C17.7959 5.08724 18.1169 4.97656 18.4932 4.97656C18.8695 4.97656 19.1904 5.08724 19.4561 5.30859C19.7217 5.52995 19.8545 5.79557 19.8545 6.10547C19.8545 6.42643 19.7217 6.69759 19.4561 6.91895C19.1904 7.1403 18.8695 7.25098 18.4932 7.25098C18.1169 7.25098 17.7959 7.1403 17.5303 6.91895C17.2646 6.69759 17.1318 6.42643 17.1318 6.10547ZM25.0508 15.9668C24.0768 15.9336 23.3408 15.7067 22.8428 15.2861C22.3447 14.8545 21.985 14.373 21.7637 13.8418C21.5423 13.2995 21.4316 12.7516 21.4316 12.1982C21.4316 11.6227 21.5368 11.0693 21.7471 10.5381C21.9684 9.99577 22.3281 9.51432 22.8262 9.09375C23.3353 8.66211 23.9772 8.44076 24.752 8.42969H31.0605C31.3704 8.42969 31.6305 8.53483 31.8408 8.74512C32.0622 8.94434 32.1729 9.18783 32.1729 9.47559C32.1729 9.77441 32.0622 10.029 31.8408 10.2393C31.6305 10.4385 31.3704 10.5381 31.0605 10.5381H24.8516C24.6081 10.5381 24.3923 10.6211 24.2041 10.7871C24.027 10.9531 23.8942 11.1689 23.8057 11.4346C23.7282 11.7002 23.6895 11.9603 23.6895 12.2148C23.6895 12.4915 23.7282 12.7627 23.8057 13.0283C23.8942 13.2939 24.027 13.5098 24.2041 13.6758C24.3923 13.8307 24.6081 13.9137 24.8516 13.9248H31.0605C31.3704 13.9248 31.6305 14.0244 31.8408 14.2236C32.0622 14.4229 32.1729 14.6608 32.1729 14.9375C32.1729 15.2253 32.0622 15.4688 31.8408 15.668C31.6305 15.8672 31.3704 15.9668 31.0605 15.9668H25.0508ZM31.9736 12.165C31.9736 12.3753 31.8796 12.5579 31.6914 12.7129C31.5254 12.8568 31.3151 12.9287 31.0605 12.9287H25.6318C25.3773 12.9287 25.1615 12.8568 24.9844 12.7129C24.8073 12.5579 24.7188 12.3753 24.7188 12.165C24.7188 11.9658 24.8073 11.7887 24.9844 11.6338C25.1615 11.4899 25.3773 11.418 25.6318 11.418H31.0605C31.3151 11.418 31.5309 11.4954 31.708 11.6504C31.8851 11.7943 31.9736 11.9658 31.9736 12.165ZM37.6846 5.90625C37.9945 5.90625 38.2601 6.01139 38.4814 6.22168C38.7028 6.4209 38.819 6.67546 38.8301 6.98535V8.42969H44.4746C44.7845 8.42969 45.0501 8.53483 45.2715 8.74512C45.4818 8.96647 45.5869 9.2321 45.5869 9.54199C45.5869 9.85189 45.4762 10.1175 45.2549 10.3389C45.0446 10.5492 44.7845 10.6543 44.4746 10.6543H38.8301V10.9863C38.819 11.4401 38.8467 11.8607 38.9131 12.248C38.9906 12.6243 39.1676 12.9619 39.4443 13.2607C39.721 13.5596 40.0697 13.7201 40.4902 13.7422H44.541C44.8509 13.7533 45.1055 13.8695 45.3047 14.0908C45.515 14.3122 45.6201 14.5778 45.6201 14.8877C45.609 15.1865 45.4984 15.4411 45.2881 15.6514C45.0889 15.8506 44.8398 15.9557 44.541 15.9668H39.9258C39.151 15.9225 38.5091 15.6624 38 15.1865C37.502 14.6995 37.1423 14.1074 36.9209 13.4102C36.7106 12.7129 36.5999 11.9714 36.5889 11.1855V10.6543H34.6797C34.3698 10.6543 34.1097 10.5436 33.8994 10.3223C33.6781 10.112 33.5674 9.85189 33.5674 9.54199C33.5674 9.2321 33.6725 8.97201 33.8828 8.76172C34.1042 8.54036 34.3698 8.42969 34.6797 8.42969H36.5889V6.98535C36.5999 6.68652 36.7106 6.4375 36.9209 6.23828C37.1312 6.02799 37.3857 5.91732 37.6846 5.90625ZM8.78125 30.3936C8.78125 30.0837 8.88639 29.8236 9.09668 29.6133C9.31803 29.3919 9.58366 29.2812 9.89355 29.2812H12.4336L12.002 28.0527C11.8249 27.599 11.6478 27.1729 11.4707 26.7744C11.3047 26.3649 11.111 25.9941 10.8896 25.6621C10.6904 25.3301 10.4635 25.153 10.209 25.1309C9.94336 25.153 9.7054 25.3301 9.49512 25.6621C9.28483 25.9941 9.09115 26.3649 8.91406 26.7744C8.74805 27.1729 8.5765 27.599 8.39941 28.0527L6.82227 32.3691C6.71159 32.6016 6.56771 32.7952 6.39062 32.9502C6.22461 33.0941 5.97005 33.166 5.62695 33.166C5.30599 33.166 5.04036 33.0553 4.83008 32.834C4.63086 32.6126 4.54232 32.347 4.56445 32.0371C4.57552 31.8932 4.60872 31.7604 4.66406 31.6387L6.49023 26.9238C6.99935 25.6842 7.50846 24.6826 8.01758 23.9189C8.51562 23.1663 9.24609 22.7845 10.209 22.7734C11.1608 22.7845 11.8857 23.1663 12.3838 23.9189C12.8929 24.6605 13.402 25.6621 13.9111 26.9238L15.7373 31.6387C15.7926 31.7604 15.8258 31.8932 15.8369 32.0371C15.859 32.347 15.765 32.6126 15.5547 32.834C15.3555 33.0553 15.0954 33.166 14.7744 33.166C14.4092 33.166 14.138 33.0941 13.9609 32.9502C13.7949 32.7952 13.6566 32.6016 13.5459 32.3691L13.2305 31.5059H9.89355C9.58366 31.5059 9.32357 31.3952 9.11328 31.1738C8.89193 30.9635 8.78125 30.7035 8.78125 30.3936ZM19.7383 34.4111C19.6719 35.0752 19.3066 35.4349 18.6426 35.4902C18.3327 35.4902 18.0615 35.3851 17.8291 35.1748C17.6077 34.9756 17.4971 34.721 17.4971 34.4111V26.5088C17.5081 26.1989 17.6243 25.9443 17.8457 25.7451C18.0671 25.5348 18.3327 25.4297 18.6426 25.4297H25.6152C26.5892 25.4629 27.3252 25.6953 27.8232 26.127C28.3213 26.5475 28.681 27.029 28.9023 27.5713C29.1237 28.1025 29.2344 28.6449 29.2344 29.1982C29.2344 29.7738 29.1237 30.3327 28.9023 30.875C28.6921 31.4062 28.3324 31.8877 27.8232 32.3193C27.3252 32.7399 26.6888 32.9557 25.9141 32.9668H21.7305C21.4206 32.9668 21.1605 32.8561 20.9502 32.6348C20.7288 32.4245 20.6182 32.1644 20.6182 31.8545C20.6182 31.5446 20.7233 31.2845 20.9336 31.0742C21.1549 30.8529 21.4206 30.7422 21.7305 30.7422H25.9805C26.1908 30.7422 26.3734 30.6592 26.5283 30.4932C26.6833 30.3161 26.7939 30.1169 26.8604 29.8955C26.9378 29.6631 26.9766 29.4362 26.9766 29.2148C26.9766 28.9824 26.9378 28.7555 26.8604 28.5342C26.7939 28.3018 26.6833 28.1025 26.5283 27.9365C26.3734 27.7594 26.1908 27.6654 25.9805 27.6543H20.1699C19.8822 27.6654 19.7383 27.8092 19.7383 28.0859V34.4111ZM33.501 34.4111C33.4346 35.0752 33.0693 35.4349 32.4053 35.4902C32.0954 35.4902 31.8242 35.3851 31.5918 35.1748C31.3704 34.9756 31.2598 34.721 31.2598 34.4111V26.5088C31.2708 26.1989 31.387 25.9443 31.6084 25.7451C31.8298 25.5348 32.0954 25.4297 32.4053 25.4297H39.3779C40.3519 25.4629 41.0879 25.6953 41.5859 26.127C42.084 26.5475 42.4437 27.029 42.665 27.5713C42.8864 28.1025 42.9971 28.6449 42.9971 29.1982C42.9971 29.7738 42.8864 30.3327 42.665 30.875C42.4548 31.4062 42.0951 31.8877 41.5859 32.3193C41.0879 32.7399 40.4515 32.9557 39.6768 32.9668H35.4932C35.1833 32.9668 34.9232 32.8561 34.7129 32.6348C34.4915 32.4245 34.3809 32.1644 34.3809 31.8545C34.3809 31.5446 34.486 31.2845 34.6963 31.0742C34.9176 30.8529 35.1833 30.7422 35.4932 30.7422H39.7432C39.9535 30.7422 40.1361 30.6592 40.291 30.4932C40.446 30.3161 40.5566 30.1169 40.623 29.8955C40.7005 29.6631 40.7393 29.4362 40.7393 29.2148C40.7393 28.9824 40.7005 28.7555 40.623 28.5342C40.5566 28.3018 40.446 28.1025 40.291 27.9365C40.1361 27.7594 39.9535 27.6654 39.7432 27.6543H33.9326C33.6449 27.6654 33.501 27.8092 33.501 28.0859V34.4111Z" fill="black"/>
<path d="M49.6306 26.6944C49.6368 26.7612 49.6644 26.824 49.7091 26.88C49.7509 26.9327 49.809 26.9809 49.8826 27.0213C49.8923 27.0266 49.9022 27.0317 49.9123 27.0367C50.803 27.4816 52.9289 27.6402 54.6245 27.6402C54.8064 27.6402 54.9913 27.6384 55.1741 27.6349C55.5674 27.6273 55.8769 27.4134 55.8653 27.1571C55.8538 26.9008 55.5243 26.6981 55.1321 26.7068C54.9633 26.7101 54.7925 26.7117 54.6245 26.7117C52.8098 26.7117 51.5921 26.5406 51.0411 26.3911L50.475 15.035C50.6552 15.0794 50.8518 15.1207 51.0648 15.1589C52.1186 15.3479 53.5072 15.4521 54.975 15.4521C55.3758 15.4521 55.7709 15.4444 56.1548 15.4292L55.8739 21.4423C55.8619 21.6985 56.171 21.9126 56.5644 21.9204C56.958 21.9292 57.2864 21.7268 57.2983 21.4705L57.585 15.3335C58.0558 15.2877 58.4937 15.2292 58.8851 15.1589C59.0987 15.1206 59.2959 15.0791 59.4766 15.0345L59.2703 19.3371C59.258 19.5934 59.567 19.8076 59.9602 19.8156C60.3546 19.8257 60.6823 19.6223 60.6947 19.3661L60.9477 14.089C60.949 14.0739 60.9497 14.0588 60.9497 14.0436C60.9497 13.6493 60.509 13.33 59.6399 13.0945C59.2768 12.9961 58.8596 13.1082 58.7083 13.3449C58.5572 13.5817 58.7293 13.8533 59.0926 13.9519C59.2227 13.9871 59.3184 14.0192 59.3879 14.0461C59.1021 14.1566 58.5065 14.2912 57.6289 14.3892L57.8117 10.4783C57.8236 10.2221 57.5145 10.008 57.1211 10.0002C56.7295 9.99356 56.3992 10.1938 56.3872 10.4501L56.2838 12.6635C55.8576 12.6447 55.4197 12.6351 54.9748 12.6351C53.507 12.6351 52.1185 12.7393 51.0646 12.9284C49.699 13.1734 49.0044 13.5471 49 14.039C49 14.0417 49 14.0443 49 14.047C49.0001 14.0602 49.0006 14.0732 49.0017 14.0862L49.6295 26.6782C49.6297 26.6837 49.63 26.689 49.6306 26.6944ZM54.9748 13.5637C55.4063 13.5637 55.8298 13.5732 56.2404 13.5923L56.1982 14.4975C55.8197 14.5142 55.4116 14.5236 54.9748 14.5236C52.5936 14.5236 51.0651 14.2433 50.5554 14.0437C51.0651 13.844 52.5937 13.5637 54.9748 13.5637ZM52.2697 21.0978C51.9914 20.9165 51.9915 20.6225 52.2698 20.4412C52.5481 20.26 52.9992 20.26 53.2775 20.4413L53.5363 20.61C53.8145 20.7913 53.8145 21.0852 53.5362 21.2665C53.3971 21.3571 53.2147 21.4025 53.0324 21.4025C52.85 21.4025 52.6677 21.3571 52.5286 21.2664L52.2697 21.0978ZM65.4513 15.2701C65.5644 14.7443 65.9846 14.1928 66.3909 13.6595C67.3451 12.4069 67.5098 11.9691 66.6815 11.67C66.3373 11.5457 66.213 11.2631 66.4037 11.0389C66.5944 10.8147 67.0282 10.7338 67.3723 10.8579C68.3309 11.2041 68.7584 11.7572 68.6085 12.4575C68.4956 12.985 68.0745 13.5378 67.6673 14.0723C66.7163 15.3207 66.5514 15.7567 67.3723 16.0532C67.7164 16.1775 67.8408 16.46 67.65 16.6843C67.5198 16.8372 67.2768 16.9236 67.0261 16.9236C66.9093 16.9236 66.7908 16.9048 66.6813 16.8652C65.7264 16.5203 65.301 15.9687 65.4513 15.2701ZM58.9292 28.5601C59.0137 28.8105 58.7707 29.0581 58.3864 29.1133C57.3966 29.2552 56.1016 29.3333 54.74 29.3333C52.8719 29.3333 50.5324 29.1776 49.5685 28.7405C49.2455 28.594 49.1659 28.3048 49.3908 28.0943C49.6156 27.8839 50.0597 27.8321 50.3826 27.9785C50.8385 28.1852 52.5205 28.4049 54.74 28.4049C56.0017 28.4049 57.1879 28.3345 58.0802 28.2065C58.4644 28.1516 58.8446 28.3097 58.9292 28.5601ZM78.4668 22.9756C78.3002 22.8816 78.076 22.8431 77.8598 22.8714C77.3154 22.9428 76.7567 23.0085 76.1861 23.0685C76.0592 22.9279 75.905 22.7982 75.7244 22.6806L74.4698 21.8632C75.6394 21.6219 76.7226 21.1489 77.5532 20.4769C79.2467 19.1067 79.4756 17.2452 78.1231 15.8448C78.0385 15.7572 77.9115 15.6906 77.7621 15.6554C75.3739 15.0934 72.6314 15.6362 70.9378 17.0064C69.3599 18.2831 69.0532 19.9861 70.1127 21.3453L69.9649 21.4648C69.718 21.6645 69.7665 21.9567 70.073 22.1175C70.3795 22.2784 70.8281 22.2467 71.0748 22.0471L71.2226 21.9276C71.7204 22.0121 72.2288 22.051 72.7363 22.0468L74.5414 23.2228C72.152 23.421 69.595 23.5238 66.995 23.5238C64.395 23.5238 61.838 23.421 59.4487 23.2228L65.8881 19.0275C66.377 18.7089 67.1435 18.6385 67.7521 18.8563C68.0969 18.9797 68.5302 18.8977 68.7197 18.6729C68.9091 18.4482 68.7831 18.1659 68.4382 18.0425C67.2776 17.6272 65.8145 17.7622 64.8804 18.371L58.2655 22.6806C58.0851 22.7982 57.9309 22.9279 57.8041 23.0685C57.2336 23.0085 56.6749 22.9427 56.1305 22.8714C55.9143 22.8432 55.6902 22.8815 55.5235 22.9756C55.3567 23.0697 55.2663 23.2087 55.2784 23.3521C55.4878 25.8253 58.6042 27.8849 62.9133 28.695C62.8799 28.7487 62.8616 28.8074 62.8616 28.8688C62.8616 29.1253 63.1806 29.3331 63.5741 29.3331H70.4158C70.8093 29.3331 71.1283 29.1253 71.1283 28.8688C71.1283 28.8074 71.11 28.7487 71.0767 28.695C75.3856 27.8849 78.5023 25.8253 78.7119 23.3521C78.724 23.2087 78.6335 23.0697 78.4668 22.9756ZM72.239 21.1054L75.0939 18.7954C75.3408 18.5958 75.2923 18.3035 74.9858 18.1427C74.6794 17.9819 74.2308 18.0135 73.984 18.2131L71.1291 20.5231C70.6536 19.5653 70.9775 18.4549 72.0479 17.5888C73.3037 16.5727 75.2829 16.1391 77.0427 16.4784C77.9273 17.5263 77.699 18.8786 76.4434 19.8946C75.5594 20.6098 74.3173 21.0365 73.0454 21.1081C72.9924 21.1067 72.4544 21.1192 72.239 21.1054ZM74.2034 26.6897C72.2637 27.6222 69.7038 28.1358 66.9951 28.1358C64.2864 28.1358 61.7265 27.6222 59.7868 26.6897C58.2032 25.9285 57.1762 24.9552 56.8262 23.9022C57.2446 23.9507 57.6696 23.9961 58.101 24.0384C58.1138 24.0398 58.1264 24.0411 58.1391 24.0421C60.9055 24.3117 63.923 24.4524 66.9951 24.4524C70.0674 24.4524 73.0851 24.3116 75.8518 24.042C75.864 24.041 75.8762 24.0398 75.8884 24.0385C76.32 23.9962 76.7455 23.9508 77.1641 23.9022C76.814 24.9552 75.787 25.9285 74.2034 26.6897ZM54.1167 19.4356C53.9776 19.5262 53.7953 19.5715 53.613 19.5715C53.4306 19.5715 53.2482 19.5262 53.1091 19.4355C52.8308 19.2541 52.8308 18.9602 53.1092 18.7789L53.3682 18.6103C53.6465 18.4289 54.0977 18.4291 54.3759 18.6104C54.6541 18.7917 54.6541 19.0856 54.3757 19.2669L54.1167 19.4356ZM52.2784 17.4117L52.0196 17.243C51.7413 17.0617 51.7414 16.7678 52.0197 16.5865C52.2979 16.4052 52.7491 16.4052 53.0274 16.5865L53.2862 16.7552C53.5644 16.9365 53.5644 17.2304 53.2861 17.4117C53.147 17.5023 52.9646 17.5477 52.7823 17.5477C52.5998 17.5476 52.4175 17.5023 52.2784 17.4117Z" fill="black"/>
</svg>
